<svg width="294" height="218" viewBox="0 0 294 218" fill="none" xmlns="http://www.w3.org/2000/svg">
<path fill-rule="evenodd" clip-rule="evenodd" d="M211.742 37.0572C211.459 50.8052 211.091 69.0602 210.835 82.1562C210.637 93.1832 210.41 104.21 210.184 115.265C210.014 124.165 198.392 136.723 186.231 124.563C172.511 110.843 158.792 97.1522 145.1 83.4322C134.952 73.3122 117.718 56.0492 106.662 44.9942C106.293 44.6252 105.896 44.2572 105.528 43.9172C105.159 43.5482 104.791 43.1802 104.479 42.8122C94.4443 31.1052 104.11 18.4912 116.951 18.2642C126.759 18.0652 136.567 17.8672 146.375 17.6692C156.551 17.4702 180.816 17.5272 193.204 17.3572C207.802 17.1572 212.025 22.2882 211.742 37.0572Z" fill="#05B4D6"/>
<path fill-rule="evenodd" clip-rule="evenodd" d="M101.958 0.915187C115.706 1.17019 133.989 1.53918 147.057 1.79418C158.083 2.02118 169.111 2.24718 180.165 2.44618C189.066 2.61618 201.624 14.2662 189.463 26.4272C175.772 40.1472 162.052 53.8382 148.332 67.5582C138.212 77.6782 120.95 94.9402 109.894 105.996C109.525 106.365 109.157 106.762 108.817 107.13C108.448 107.499 108.109 107.839 107.712 108.179C96.0045 118.186 83.4185 108.548 83.1635 95.7072C82.9655 85.8992 82.7675 76.0912 82.5685 66.2832C82.3705 56.1072 82.4265 31.8142 82.2565 19.4552C82.0575 4.85519 87.1885 0.603187 101.958 0.915187Z" fill="#05B4D6"/>
<path fill-rule="evenodd" clip-rule="evenodd" d="M116.952 18.263L146.376 17.668C156.552 17.469 180.817 17.526 193.205 17.356C193.63 17.356 194.026 17.356 194.424 17.356C194.083 20.219 192.581 23.309 189.463 26.427L148.332 67.558L138.779 77.1109L106.663 44.994C106.294 44.625 105.897 44.257 105.529 43.917C105.16 43.548 104.792 43.18 104.48 42.812C94.4453 31.104 104.111 18.49 116.952 18.263Z" fill="#2A51A3"/>
<path fill-rule="evenodd" clip-rule="evenodd" d="M0.476562 166.6H9.94456L25.3086 190.496L40.6726 166.6H50.1116V217.114H41.3236V180.887L25.3646 204.698H25.0816L9.29256 181.029V217.114H0.476562V166.6ZM109.271 176.861C98.9526 200.984 102.298 193.331 92.1776 217.113H83.0786L105.303 166.231H113.524L135.748 217.113H126.365C119.221 200.077 117.321 195.457 109.271 176.861ZM190.54 191.658C193.743 191.658 196.267 190.892 198.137 189.362C200.036 187.831 200.972 185.761 200.972 183.154V183.012C200.972 180.262 200.065 178.164 198.222 176.747C196.38 175.33 193.8 174.621 190.484 174.621H177.53V191.657H190.54V191.658ZM168.713 166.6H191.221C194.396 166.6 197.23 167.054 199.668 167.933C202.134 168.84 204.175 170.059 205.791 171.646C207.151 173.063 208.172 174.651 208.908 176.494C209.617 178.307 209.986 180.348 209.986 182.559V182.702C209.986 184.771 209.702 186.641 209.079 188.286C208.483 189.958 207.661 191.404 206.584 192.68C205.535 193.955 204.288 195.061 202.814 195.94C201.339 196.819 199.724 197.528 197.938 198.009L211.573 217.114H201.113L188.669 199.51H188.527H177.529V217.114H168.713V166.6V166.6ZM267.047 176.861C256.53 201.381 260.358 192.678 249.954 217.113H240.855L263.079 166.231H271.299L293.523 217.113H284.141C277.224 200.616 274.899 195.003 267.047 176.861Z" fill="white"/>
</svg>
